<svg id="Layer" enable-background="new 0 0 512 512"  viewBox="0 0 512 512"  xmlns="http://www.w3.org/2000/svg">
<path fill="#fff" d="m473 192h-33v-20c0-24.262-19.738-44-44-44h-352c-24.262 0-44 19.738-44 44v168c0 24.262 19.738 44 44 44h352c24.262 0 44-19.738 44-44v-20h33c21.505 0 39-17.495 39-39v-50c0-21.505-17.495-39-39-39zm-81 144h-344v-160h344v40 80zm72-64h-24v-32h24z"/>
<path fill="#fff" d="m128 200h-16c-13.255 0-24 10.745-24 24v64c0 13.255 10.745 24 24 24h16c13.255 0 24-10.745 24-24v-64c0-13.255-10.745-24-24-24z"/>
<path fill="#fff" d="m224 200h-16c-13.255 0-24 10.745-24 24v64c0 13.255 10.745 24 24 24h16c13.255 0 24-10.745 24-24v-64c0-13.255-10.745-24-24-24z"/>
<path fill="#fff" d="m320 200h-16c-13.255 0-24 10.745-24 24v64c0 13.255 10.745 24 24 24h16c13.255 0 24-10.745 24-24v-64c0-13.255-10.745-24-24-24z"/>
</svg>