<svg version="1.1" id="Capa_1" xmlns="http://www.w3.org/2000/svg" xmlns:xlink="http://www.w3.org/1999/xlink" x="0px" y="0px"
	 viewBox="0 0 460 460" style="enable-background:new 0 0 460 460;" xml:space="preserve">
<g id="XMLID_996_">
	<polygon fill="#fff" id="XMLID_997_" points="170,264.641 230,299.282 290,264.641 290,195.359 230,160.718 170,195.359 	"/>
	<path fill="#fff" id="XMLID_998_" d="M290,7.923C270.87,2.767,250.759,0,230,0c-51.918,0-99.813,17.209-138.307,46.225L290,160.718V7.923z"/>
	<path fill="#fff" id="XMLID_999_" d="M320,18.282V247.32l132.327-76.399C434.061,102.008,384.618,45.786,320,18.282z"/>
	<path fill="#fff" id="XMLID_1000_" d="M67.716,67.023C25.89,108.672,0,166.311,0,230c0,9.443,0.582,18.749,1.688,27.893L200,143.397
		L67.716,67.023z"/>
	<path fill="#fff" id="XMLID_1001_" d="M140,441.718V212.679L7.673,289.078C25.939,357.992,75.382,414.214,140,441.718z"/>
	<path fill="#fff" id="XMLID_1002_" d="M458.312,202.107L260,316.603l132.284,76.374C434.11,351.328,460,293.689,460,230
		C460,220.557,459.418,211.251,458.312,202.107z"/>
	<path fill="#fff" id="XMLID_1003_" d="M170,452.077c19.13,5.156,39.241,7.923,60,7.923c51.918,0,99.813-17.209,138.307-46.225L170,299.282
		V452.077z"/>
</g>
</svg>
